<mxfile host="Electron" agent="Mozilla/5.0 (X11; Linux x86_64) AppleWebKit/537.36 (KHTML, like Gecko) draw.io/26.2.15 Chrome/134.0.6998.205 Electron/35.2.1 Safari/537.36" version="26.2.15">
  <diagram id="C5RBs43oDa-KdzZeNtuy" name="Page-1">
    <mxGraphModel dx="946" dy="1772" grid="1" gridSize="10" guides="1" tooltips="1" connect="1" arrows="1" fold="1" page="1" pageScale="1" pageWidth="827" pageHeight="1169" math="0" shadow="0">
      <root>
        <mxCell id="WIyWlLk6GJQsqaUBKTNV-0" />
        <mxCell id="WIyWlLk6GJQsqaUBKTNV-1" parent="WIyWlLk6GJQsqaUBKTNV-0" />
        <mxCell id="zkfFHV4jXpPFQw0GAbJ--16" value="" style="endArrow=block;endSize=10;endFill=0;shadow=0;strokeWidth=1;rounded=0;curved=0;edgeStyle=elbowEdgeStyle;elbow=vertical;entryX=0.01;entryY=0.762;entryDx=0;entryDy=0;exitX=0.5;exitY=0;exitDx=0;exitDy=0;entryPerimeter=0;" parent="WIyWlLk6GJQsqaUBKTNV-1" target="zkfFHV4jXpPFQw0GAbJ--18" edge="1" source="ZehluOue_7DgOcoAd4q2-78">
          <mxGeometry width="160" relative="1" as="geometry">
            <mxPoint x="410" y="360" as="sourcePoint" />
            <mxPoint x="300" y="257.9999999999998" as="targetPoint" />
            <Array as="points">
              <mxPoint x="380" />
            </Array>
          </mxGeometry>
        </mxCell>
        <mxCell id="zkfFHV4jXpPFQw0GAbJ--17" value="ASMUO" style="swimlane;fontStyle=1;align=center;verticalAlign=middle;childLayout=stackLayout;horizontal=1;startSize=20;horizontalStack=0;resizeParent=1;resizeLast=0;collapsible=1;marginBottom=0;rounded=0;shadow=0;strokeWidth=1;fontFamily=Helvetica;fontSize=10;" parent="WIyWlLk6GJQsqaUBKTNV-1" vertex="1">
          <mxGeometry x="520" y="-30" width="140" height="160" as="geometry">
            <mxRectangle x="550" y="140" width="160" height="26" as="alternateBounds" />
          </mxGeometry>
        </mxCell>
        <mxCell id="zkfFHV4jXpPFQw0GAbJ--18" value="Asmens kodas" style="text;align=left;verticalAlign=middle;spacingLeft=4;spacingRight=4;overflow=hidden;rotatable=0;points=[[0,0.5],[1,0.5]];portConstraint=eastwest;fontSize=10;" parent="zkfFHV4jXpPFQw0GAbJ--17" vertex="1">
          <mxGeometry y="20" width="140" height="14" as="geometry" />
        </mxCell>
        <mxCell id="zkfFHV4jXpPFQw0GAbJ--19" value="Vardas" style="text;align=left;verticalAlign=middle;spacingLeft=4;spacingRight=4;overflow=hidden;rotatable=0;points=[[0,0.5],[1,0.5]];portConstraint=eastwest;rounded=0;shadow=0;html=0;fontSize=10;" parent="zkfFHV4jXpPFQw0GAbJ--17" vertex="1">
          <mxGeometry y="34" width="140" height="14" as="geometry" />
        </mxCell>
        <mxCell id="zkfFHV4jXpPFQw0GAbJ--20" value="Pavardė" style="text;align=left;verticalAlign=middle;spacingLeft=4;spacingRight=4;overflow=hidden;rotatable=0;points=[[0,0.5],[1,0.5]];portConstraint=eastwest;rounded=0;shadow=0;html=0;fontSize=10;" parent="zkfFHV4jXpPFQw0GAbJ--17" vertex="1">
          <mxGeometry y="48" width="140" height="14" as="geometry" />
        </mxCell>
        <mxCell id="zkfFHV4jXpPFQw0GAbJ--21" value="Viešasis raktas" style="text;align=left;verticalAlign=middle;spacingLeft=4;spacingRight=4;overflow=hidden;rotatable=0;points=[[0,0.5],[1,0.5]];portConstraint=eastwest;rounded=0;shadow=0;html=0;fontSize=10;" parent="zkfFHV4jXpPFQw0GAbJ--17" vertex="1">
          <mxGeometry y="62" width="140" height="14" as="geometry" />
        </mxCell>
        <mxCell id="zkfFHV4jXpPFQw0GAbJ--22" value="Adresas" style="text;align=left;verticalAlign=middle;spacingLeft=4;spacingRight=4;overflow=hidden;rotatable=0;points=[[0,0.5],[1,0.5]];portConstraint=eastwest;rounded=0;shadow=0;html=0;fontSize=10;" parent="zkfFHV4jXpPFQw0GAbJ--17" vertex="1">
          <mxGeometry y="76" width="140" height="14" as="geometry" />
        </mxCell>
        <mxCell id="ZehluOue_7DgOcoAd4q2-54" value="El. paštas" style="text;align=left;verticalAlign=middle;spacingLeft=4;spacingRight=4;overflow=hidden;rotatable=0;points=[[0,0.5],[1,0.5]];portConstraint=eastwest;rounded=0;shadow=0;html=0;fontSize=10;" parent="zkfFHV4jXpPFQw0GAbJ--17" vertex="1">
          <mxGeometry y="90" width="140" height="14" as="geometry" />
        </mxCell>
        <mxCell id="ZehluOue_7DgOcoAd4q2-55" value="Tel. numeris" style="text;align=left;verticalAlign=middle;spacingLeft=4;spacingRight=4;overflow=hidden;rotatable=0;points=[[0,0.5],[1,0.5]];portConstraint=eastwest;rounded=0;shadow=0;html=0;fontSize=10;" parent="zkfFHV4jXpPFQw0GAbJ--17" vertex="1">
          <mxGeometry y="104" width="140" height="14" as="geometry" />
        </mxCell>
        <mxCell id="ZehluOue_7DgOcoAd4q2-56" value="Lytis" style="text;align=left;verticalAlign=middle;spacingLeft=4;spacingRight=4;overflow=hidden;rotatable=0;points=[[0,0.5],[1,0.5]];portConstraint=eastwest;rounded=0;shadow=0;html=0;fontSize=10;" parent="zkfFHV4jXpPFQw0GAbJ--17" vertex="1">
          <mxGeometry y="118" width="140" height="14" as="geometry" />
        </mxCell>
        <mxCell id="ZehluOue_7DgOcoAd4q2-57" value="Statusas" style="text;align=left;verticalAlign=middle;spacingLeft=4;spacingRight=4;overflow=hidden;rotatable=0;points=[[0,0.5],[1,0.5]];portConstraint=eastwest;rounded=0;shadow=0;html=0;fontSize=10;" parent="zkfFHV4jXpPFQw0GAbJ--17" vertex="1">
          <mxGeometry y="132" width="140" height="14" as="geometry" />
        </mxCell>
        <mxCell id="ZehluOue_7DgOcoAd4q2-58" value="Registracijos data ir laikas" style="text;align=left;verticalAlign=middle;spacingLeft=4;spacingRight=4;overflow=hidden;rotatable=0;points=[[0,0.5],[1,0.5]];portConstraint=eastwest;rounded=0;shadow=0;html=0;fontSize=10;" parent="zkfFHV4jXpPFQw0GAbJ--17" vertex="1">
          <mxGeometry y="146" width="140" height="14" as="geometry" />
        </mxCell>
        <mxCell id="ZehluOue_7DgOcoAd4q2-59" value="GYDYTOJAS" style="swimlane;fontStyle=1;align=center;verticalAlign=middle;childLayout=stackLayout;horizontal=1;startSize=20;horizontalStack=0;resizeParent=1;resizeLast=0;collapsible=1;marginBottom=0;rounded=0;shadow=0;strokeWidth=1;fontFamily=Helvetica;fontSize=10;" parent="WIyWlLk6GJQsqaUBKTNV-1" vertex="1">
          <mxGeometry x="740" y="143" width="120" height="80" as="geometry">
            <mxRectangle x="550" y="140" width="160" height="26" as="alternateBounds" />
          </mxGeometry>
        </mxCell>
        <mxCell id="ZehluOue_7DgOcoAd4q2-60" value="Asmens kodas" style="text;align=left;verticalAlign=middle;spacingLeft=4;spacingRight=4;overflow=hidden;rotatable=0;points=[[0,0.5],[1,0.5]];portConstraint=eastwest;fontSize=10;" parent="ZehluOue_7DgOcoAd4q2-59" vertex="1">
          <mxGeometry y="20" width="120" height="14" as="geometry" />
        </mxCell>
        <mxCell id="ZehluOue_7DgOcoAd4q2-61" value="Licencijos numeris" style="text;align=left;verticalAlign=middle;spacingLeft=4;spacingRight=4;overflow=hidden;rotatable=0;points=[[0,0.5],[1,0.5]];portConstraint=eastwest;rounded=0;shadow=0;html=0;fontSize=10;" parent="ZehluOue_7DgOcoAd4q2-59" vertex="1">
          <mxGeometry y="34" width="120" height="14" as="geometry" />
        </mxCell>
        <mxCell id="ZehluOue_7DgOcoAd4q2-62" value="Specializacija" style="text;align=left;verticalAlign=middle;spacingLeft=4;spacingRight=4;overflow=hidden;rotatable=0;points=[[0,0.5],[1,0.5]];portConstraint=eastwest;rounded=0;shadow=0;html=0;fontSize=10;" parent="ZehluOue_7DgOcoAd4q2-59" vertex="1">
          <mxGeometry y="48" width="120" height="14" as="geometry" />
        </mxCell>
        <mxCell id="ZehluOue_7DgOcoAd4q2-63" value="Institucija" style="text;align=left;verticalAlign=middle;spacingLeft=4;spacingRight=4;overflow=hidden;rotatable=0;points=[[0,0.5],[1,0.5]];portConstraint=eastwest;rounded=0;shadow=0;html=0;fontSize=10;" parent="ZehluOue_7DgOcoAd4q2-59" vertex="1">
          <mxGeometry y="62" width="120" height="14" as="geometry" />
        </mxCell>
        <mxCell id="ZehluOue_7DgOcoAd4q2-70" value="TYRĖJAS" style="swimlane;fontStyle=1;align=center;verticalAlign=middle;childLayout=stackLayout;horizontal=1;startSize=20;horizontalStack=0;resizeParent=1;resizeLast=0;collapsible=1;marginBottom=0;rounded=0;shadow=0;strokeWidth=1;fontFamily=Helvetica;fontSize=10;" parent="WIyWlLk6GJQsqaUBKTNV-1" vertex="1">
          <mxGeometry x="950" y="330" width="130" height="50" as="geometry">
            <mxRectangle x="550" y="140" width="160" height="26" as="alternateBounds" />
          </mxGeometry>
        </mxCell>
        <mxCell id="ZehluOue_7DgOcoAd4q2-71" value="Asmens kodas" style="text;align=left;verticalAlign=middle;spacingLeft=4;spacingRight=4;overflow=hidden;rotatable=0;points=[[0,0.5],[1,0.5]];portConstraint=eastwest;fontSize=10;" parent="ZehluOue_7DgOcoAd4q2-70" vertex="1">
          <mxGeometry y="20" width="130" height="14" as="geometry" />
        </mxCell>
        <mxCell id="ZehluOue_7DgOcoAd4q2-74" value="Institucija" style="text;align=left;verticalAlign=middle;spacingLeft=4;spacingRight=4;overflow=hidden;rotatable=0;points=[[0,0.5],[1,0.5]];portConstraint=eastwest;rounded=0;shadow=0;html=0;fontSize=10;" parent="ZehluOue_7DgOcoAd4q2-70" vertex="1">
          <mxGeometry y="34" width="130" height="14" as="geometry" />
        </mxCell>
        <mxCell id="ZehluOue_7DgOcoAd4q2-78" value="PACIENTAS" style="swimlane;fontStyle=1;align=center;verticalAlign=middle;childLayout=stackLayout;horizontal=1;startSize=20;horizontalStack=0;resizeParent=1;resizeLast=0;collapsible=1;marginBottom=0;rounded=0;shadow=0;strokeWidth=1;fontFamily=Helvetica;fontSize=10;" parent="WIyWlLk6GJQsqaUBKTNV-1" vertex="1">
          <mxGeometry x="320" y="50" width="120" height="62" as="geometry">
            <mxRectangle x="550" y="140" width="160" height="26" as="alternateBounds" />
          </mxGeometry>
        </mxCell>
        <mxCell id="ZehluOue_7DgOcoAd4q2-79" value="Asmens kodas" style="text;align=left;verticalAlign=middle;spacingLeft=4;spacingRight=4;overflow=hidden;rotatable=0;points=[[0,0.5],[1,0.5]];portConstraint=eastwest;fontSize=10;" parent="ZehluOue_7DgOcoAd4q2-78" vertex="1">
          <mxGeometry y="20" width="120" height="14" as="geometry" />
        </mxCell>
        <mxCell id="ZehluOue_7DgOcoAd4q2-80" value="Pseudonimas" style="text;align=left;verticalAlign=middle;spacingLeft=4;spacingRight=4;overflow=hidden;rotatable=0;points=[[0,0.5],[1,0.5]];portConstraint=eastwest;rounded=0;shadow=0;html=0;fontSize=10;" parent="ZehluOue_7DgOcoAd4q2-78" vertex="1">
          <mxGeometry y="34" width="120" height="14" as="geometry" />
        </mxCell>
        <mxCell id="ZehluOue_7DgOcoAd4q2-81" value="Užmiršimo statusas" style="text;align=left;verticalAlign=middle;spacingLeft=4;spacingRight=4;overflow=hidden;rotatable=0;points=[[0,0.5],[1,0.5]];portConstraint=eastwest;rounded=0;shadow=0;html=0;fontSize=10;" parent="ZehluOue_7DgOcoAd4q2-78" vertex="1">
          <mxGeometry y="48" width="120" height="14" as="geometry" />
        </mxCell>
        <mxCell id="ZehluOue_7DgOcoAd4q2-83" value="ANALIZĖS ĮRAŠAS" style="swimlane;fontStyle=1;align=center;verticalAlign=middle;childLayout=stackLayout;horizontal=1;startSize=20;horizontalStack=0;resizeParent=1;resizeLast=0;collapsible=1;marginBottom=0;rounded=0;shadow=0;strokeWidth=1;fontFamily=Helvetica;fontSize=10;" parent="WIyWlLk6GJQsqaUBKTNV-1" vertex="1">
          <mxGeometry x="520" y="180" width="140" height="132" as="geometry">
            <mxRectangle x="550" y="140" width="160" height="26" as="alternateBounds" />
          </mxGeometry>
        </mxCell>
        <mxCell id="1eRh6z_aY9kOuhoSlSKs-17" value="Biologiniai duomenys" style="text;align=left;verticalAlign=middle;spacingLeft=4;spacingRight=4;overflow=hidden;rotatable=0;points=[[0,0.5],[1,0.5]];portConstraint=eastwest;fontSize=10;" vertex="1" parent="ZehluOue_7DgOcoAd4q2-83">
          <mxGeometry y="20" width="140" height="14" as="geometry" />
        </mxCell>
        <mxCell id="ZehluOue_7DgOcoAd4q2-84" value="Autorius" style="text;align=left;verticalAlign=middle;spacingLeft=4;spacingRight=4;overflow=hidden;rotatable=0;points=[[0,0.5],[1,0.5]];portConstraint=eastwest;fontSize=10;" parent="ZehluOue_7DgOcoAd4q2-83" vertex="1">
          <mxGeometry y="34" width="140" height="14" as="geometry" />
        </mxCell>
        <mxCell id="ZehluOue_7DgOcoAd4q2-85" value="Analizė priskirta" style="text;align=left;verticalAlign=middle;spacingLeft=4;spacingRight=4;overflow=hidden;rotatable=0;points=[[0,0.5],[1,0.5]];portConstraint=eastwest;rounded=0;shadow=0;html=0;fontSize=10;" parent="ZehluOue_7DgOcoAd4q2-83" vertex="1">
          <mxGeometry y="48" width="140" height="14" as="geometry" />
        </mxCell>
        <mxCell id="ZehluOue_7DgOcoAd4q2-86" value="Analizės tipas" style="text;align=left;verticalAlign=middle;spacingLeft=4;spacingRight=4;overflow=hidden;rotatable=0;points=[[0,0.5],[1,0.5]];portConstraint=eastwest;rounded=0;shadow=0;html=0;fontSize=10;" parent="ZehluOue_7DgOcoAd4q2-83" vertex="1">
          <mxGeometry y="62" width="140" height="14" as="geometry" />
        </mxCell>
        <mxCell id="ZehluOue_7DgOcoAd4q2-87" value="Išvada" style="text;align=left;verticalAlign=middle;spacingLeft=4;spacingRight=4;overflow=hidden;rotatable=0;points=[[0,0.5],[1,0.5]];portConstraint=eastwest;rounded=0;shadow=0;html=0;fontSize=10;" parent="ZehluOue_7DgOcoAd4q2-83" vertex="1">
          <mxGeometry y="76" width="140" height="14" as="geometry" />
        </mxCell>
        <mxCell id="ZehluOue_7DgOcoAd4q2-88" value="Sukūrimo data ir laikas" style="text;align=left;verticalAlign=middle;spacingLeft=4;spacingRight=4;overflow=hidden;rotatable=0;points=[[0,0.5],[1,0.5]];portConstraint=eastwest;rounded=0;shadow=0;html=0;fontSize=10;" parent="ZehluOue_7DgOcoAd4q2-83" vertex="1">
          <mxGeometry y="90" width="140" height="14" as="geometry" />
        </mxCell>
        <mxCell id="ZehluOue_7DgOcoAd4q2-89" value="Analizė atlikta data ir laikas" style="text;align=left;verticalAlign=middle;spacingLeft=4;spacingRight=4;overflow=hidden;rotatable=0;points=[[0,0.5],[1,0.5]];portConstraint=eastwest;rounded=0;shadow=0;html=0;fontSize=10;" parent="ZehluOue_7DgOcoAd4q2-83" vertex="1">
          <mxGeometry y="104" width="140" height="14" as="geometry" />
        </mxCell>
        <mxCell id="ZehluOue_7DgOcoAd4q2-90" value="Būsena" style="text;align=left;verticalAlign=middle;spacingLeft=4;spacingRight=4;overflow=hidden;rotatable=0;points=[[0,0.5],[1,0.5]];portConstraint=eastwest;rounded=0;shadow=0;html=0;fontSize=10;" parent="ZehluOue_7DgOcoAd4q2-83" vertex="1">
          <mxGeometry y="118" width="140" height="14" as="geometry" />
        </mxCell>
        <mxCell id="1eRh6z_aY9kOuhoSlSKs-0" value="ANALIZĖS UŽKLAUSA" style="swimlane;fontStyle=1;align=center;verticalAlign=middle;childLayout=stackLayout;horizontal=1;startSize=20;horizontalStack=0;resizeParent=1;resizeLast=0;collapsible=1;marginBottom=0;rounded=0;shadow=0;strokeWidth=1;fontFamily=Helvetica;fontSize=10;" vertex="1" parent="WIyWlLk6GJQsqaUBKTNV-1">
          <mxGeometry x="740" y="330" width="120" height="132" as="geometry">
            <mxRectangle x="550" y="140" width="160" height="26" as="alternateBounds" />
          </mxGeometry>
        </mxCell>
        <mxCell id="1eRh6z_aY9kOuhoSlSKs-18" value="Biologiniai duomenys" style="text;align=left;verticalAlign=middle;spacingLeft=4;spacingRight=4;overflow=hidden;rotatable=0;points=[[0,0.5],[1,0.5]];portConstraint=eastwest;fontSize=10;" vertex="1" parent="1eRh6z_aY9kOuhoSlSKs-0">
          <mxGeometry y="20" width="120" height="14" as="geometry" />
        </mxCell>
        <mxCell id="1eRh6z_aY9kOuhoSlSKs-1" value="Autorius" style="text;align=left;verticalAlign=middle;spacingLeft=4;spacingRight=4;overflow=hidden;rotatable=0;points=[[0,0.5],[1,0.5]];portConstraint=eastwest;fontSize=10;" vertex="1" parent="1eRh6z_aY9kOuhoSlSKs-0">
          <mxGeometry y="34" width="120" height="14" as="geometry" />
        </mxCell>
        <mxCell id="1eRh6z_aY9kOuhoSlSKs-2" value="Tyrėjas" style="text;align=left;verticalAlign=middle;spacingLeft=4;spacingRight=4;overflow=hidden;rotatable=0;points=[[0,0.5],[1,0.5]];portConstraint=eastwest;rounded=0;shadow=0;html=0;fontSize=10;" vertex="1" parent="1eRh6z_aY9kOuhoSlSKs-0">
          <mxGeometry y="48" width="120" height="14" as="geometry" />
        </mxCell>
        <mxCell id="1eRh6z_aY9kOuhoSlSKs-3" value="Tikslas" style="text;align=left;verticalAlign=middle;spacingLeft=4;spacingRight=4;overflow=hidden;rotatable=0;points=[[0,0.5],[1,0.5]];portConstraint=eastwest;rounded=0;shadow=0;html=0;fontSize=10;" vertex="1" parent="1eRh6z_aY9kOuhoSlSKs-0">
          <mxGeometry y="62" width="120" height="14" as="geometry" />
        </mxCell>
        <mxCell id="1eRh6z_aY9kOuhoSlSKs-4" value="Būsena" style="text;align=left;verticalAlign=middle;spacingLeft=4;spacingRight=4;overflow=hidden;rotatable=0;points=[[0,0.5],[1,0.5]];portConstraint=eastwest;rounded=0;shadow=0;html=0;fontSize=10;" vertex="1" parent="1eRh6z_aY9kOuhoSlSKs-0">
          <mxGeometry y="76" width="120" height="14" as="geometry" />
        </mxCell>
        <mxCell id="1eRh6z_aY9kOuhoSlSKs-5" value="Sukūrimo data ir laikas" style="text;align=left;verticalAlign=middle;spacingLeft=4;spacingRight=4;overflow=hidden;rotatable=0;points=[[0,0.5],[1,0.5]];portConstraint=eastwest;rounded=0;shadow=0;html=0;fontSize=10;" vertex="1" parent="1eRh6z_aY9kOuhoSlSKs-0">
          <mxGeometry y="90" width="120" height="14" as="geometry" />
        </mxCell>
        <mxCell id="1eRh6z_aY9kOuhoSlSKs-6" value="Pateikimo terminas" style="text;align=left;verticalAlign=middle;spacingLeft=4;spacingRight=4;overflow=hidden;rotatable=0;points=[[0,0.5],[1,0.5]];portConstraint=eastwest;rounded=0;shadow=0;html=0;fontSize=10;" vertex="1" parent="1eRh6z_aY9kOuhoSlSKs-0">
          <mxGeometry y="104" width="120" height="14" as="geometry" />
        </mxCell>
        <mxCell id="1eRh6z_aY9kOuhoSlSKs-7" value="Paciento leidimas" style="text;align=left;verticalAlign=middle;spacingLeft=4;spacingRight=4;overflow=hidden;rotatable=0;points=[[0,0.5],[1,0.5]];portConstraint=eastwest;rounded=0;shadow=0;html=0;fontSize=10;" vertex="1" parent="1eRh6z_aY9kOuhoSlSKs-0">
          <mxGeometry y="118" width="120" height="14" as="geometry" />
        </mxCell>
        <mxCell id="1eRh6z_aY9kOuhoSlSKs-8" value="BIOLOGINIAI&#xa;DUOMENYS" style="swimlane;fontStyle=1;align=center;verticalAlign=middle;childLayout=stackLayout;horizontal=1;startSize=30;horizontalStack=0;resizeParent=1;resizeLast=0;collapsible=1;marginBottom=0;rounded=0;shadow=0;strokeWidth=1;fontFamily=Helvetica;fontSize=10;" vertex="1" parent="WIyWlLk6GJQsqaUBKTNV-1">
          <mxGeometry x="315" y="260" width="130" height="142" as="geometry">
            <mxRectangle x="550" y="140" width="160" height="26" as="alternateBounds" />
          </mxGeometry>
        </mxCell>
        <mxCell id="1eRh6z_aY9kOuhoSlSKs-9" value="Savininko duomenys" style="text;align=left;verticalAlign=middle;spacingLeft=4;spacingRight=4;overflow=hidden;rotatable=0;points=[[0,0.5],[1,0.5]];portConstraint=eastwest;fontSize=10;" vertex="1" parent="1eRh6z_aY9kOuhoSlSKs-8">
          <mxGeometry y="30" width="130" height="14" as="geometry" />
        </mxCell>
        <mxCell id="1eRh6z_aY9kOuhoSlSKs-10" value="Saugyklos duomenys" style="text;align=left;verticalAlign=middle;spacingLeft=4;spacingRight=4;overflow=hidden;rotatable=0;points=[[0,0.5],[1,0.5]];portConstraint=eastwest;rounded=0;shadow=0;html=0;fontSize=10;" vertex="1" parent="1eRh6z_aY9kOuhoSlSKs-8">
          <mxGeometry y="44" width="130" height="14" as="geometry" />
        </mxCell>
        <mxCell id="1eRh6z_aY9kOuhoSlSKs-11" value="Šifravimo rakto duomenys" style="text;align=left;verticalAlign=middle;spacingLeft=4;spacingRight=4;overflow=hidden;rotatable=0;points=[[0,0.5],[1,0.5]];portConstraint=eastwest;rounded=0;shadow=0;html=0;fontSize=10;" vertex="1" parent="1eRh6z_aY9kOuhoSlSKs-8">
          <mxGeometry y="58" width="130" height="14" as="geometry" />
        </mxCell>
        <mxCell id="1eRh6z_aY9kOuhoSlSKs-12" value="Kontrolinė suma" style="text;align=left;verticalAlign=middle;spacingLeft=4;spacingRight=4;overflow=hidden;rotatable=0;points=[[0,0.5],[1,0.5]];portConstraint=eastwest;rounded=0;shadow=0;html=0;fontSize=10;" vertex="1" parent="1eRh6z_aY9kOuhoSlSKs-8">
          <mxGeometry y="72" width="130" height="14" as="geometry" />
        </mxCell>
        <mxCell id="1eRh6z_aY9kOuhoSlSKs-13" value="Duomenų tipas" style="text;align=left;verticalAlign=middle;spacingLeft=4;spacingRight=4;overflow=hidden;rotatable=0;points=[[0,0.5],[1,0.5]];portConstraint=eastwest;rounded=0;shadow=0;html=0;fontSize=10;" vertex="1" parent="1eRh6z_aY9kOuhoSlSKs-8">
          <mxGeometry y="86" width="130" height="14" as="geometry" />
        </mxCell>
        <mxCell id="1eRh6z_aY9kOuhoSlSKs-14" value="Įkėlimo data ir laikas" style="text;align=left;verticalAlign=middle;spacingLeft=4;spacingRight=4;overflow=hidden;rotatable=0;points=[[0,0.5],[1,0.5]];portConstraint=eastwest;rounded=0;shadow=0;html=0;fontSize=10;" vertex="1" parent="1eRh6z_aY9kOuhoSlSKs-8">
          <mxGeometry y="100" width="130" height="14" as="geometry" />
        </mxCell>
        <mxCell id="1eRh6z_aY9kOuhoSlSKs-15" value="Būsena" style="text;align=left;verticalAlign=middle;spacingLeft=4;spacingRight=4;overflow=hidden;rotatable=0;points=[[0,0.5],[1,0.5]];portConstraint=eastwest;rounded=0;shadow=0;html=0;fontSize=10;" vertex="1" parent="1eRh6z_aY9kOuhoSlSKs-8">
          <mxGeometry y="114" width="130" height="14" as="geometry" />
        </mxCell>
        <mxCell id="1eRh6z_aY9kOuhoSlSKs-16" value="Duomenis įkėlė" style="text;align=left;verticalAlign=middle;spacingLeft=4;spacingRight=4;overflow=hidden;rotatable=0;points=[[0,0.5],[1,0.5]];portConstraint=eastwest;rounded=0;shadow=0;html=0;fontSize=10;" vertex="1" parent="1eRh6z_aY9kOuhoSlSKs-8">
          <mxGeometry y="128" width="130" height="14" as="geometry" />
        </mxCell>
        <mxCell id="1eRh6z_aY9kOuhoSlSKs-19" value="BŪTI PAMIRŠTAM&#xa;PRAŠYMAS" style="swimlane;fontStyle=1;align=center;verticalAlign=middle;childLayout=stackLayout;horizontal=1;startSize=30;horizontalStack=0;resizeParent=1;resizeLast=0;collapsible=1;marginBottom=0;rounded=0;shadow=0;strokeWidth=1;fontFamily=Helvetica;fontSize=10;" vertex="1" parent="WIyWlLk6GJQsqaUBKTNV-1">
          <mxGeometry x="170" y="140" width="120" height="86" as="geometry">
            <mxRectangle x="550" y="140" width="160" height="26" as="alternateBounds" />
          </mxGeometry>
        </mxCell>
        <mxCell id="1eRh6z_aY9kOuhoSlSKs-20" value="Pacientas" style="text;align=left;verticalAlign=middle;spacingLeft=4;spacingRight=4;overflow=hidden;rotatable=0;points=[[0,0.5],[1,0.5]];portConstraint=eastwest;fontSize=10;" vertex="1" parent="1eRh6z_aY9kOuhoSlSKs-19">
          <mxGeometry y="30" width="120" height="14" as="geometry" />
        </mxCell>
        <mxCell id="1eRh6z_aY9kOuhoSlSKs-21" value="Pateikimo data ir laikas" style="text;align=left;verticalAlign=middle;spacingLeft=4;spacingRight=4;overflow=hidden;rotatable=0;points=[[0,0.5],[1,0.5]];portConstraint=eastwest;rounded=0;shadow=0;html=0;fontSize=10;" vertex="1" parent="1eRh6z_aY9kOuhoSlSKs-19">
          <mxGeometry y="44" width="120" height="14" as="geometry" />
        </mxCell>
        <mxCell id="1eRh6z_aY9kOuhoSlSKs-22" value="Priežastis" style="text;align=left;verticalAlign=middle;spacingLeft=4;spacingRight=4;overflow=hidden;rotatable=0;points=[[0,0.5],[1,0.5]];portConstraint=eastwest;rounded=0;shadow=0;html=0;fontSize=10;" vertex="1" parent="1eRh6z_aY9kOuhoSlSKs-19">
          <mxGeometry y="58" width="120" height="14" as="geometry" />
        </mxCell>
        <mxCell id="1eRh6z_aY9kOuhoSlSKs-23" value="Panaikinimo statusas" style="text;align=left;verticalAlign=middle;spacingLeft=4;spacingRight=4;overflow=hidden;rotatable=0;points=[[0,0.5],[1,0.5]];portConstraint=eastwest;rounded=0;shadow=0;html=0;fontSize=10;" vertex="1" parent="1eRh6z_aY9kOuhoSlSKs-19">
          <mxGeometry y="72" width="120" height="14" as="geometry" />
        </mxCell>
        <mxCell id="1eRh6z_aY9kOuhoSlSKs-27" value="" style="endArrow=block;endSize=10;endFill=0;shadow=0;strokeWidth=1;rounded=0;curved=0;edgeStyle=elbowEdgeStyle;elbow=vertical;exitX=0.5;exitY=0;exitDx=0;exitDy=0;entryX=1;entryY=0.5;entryDx=0;entryDy=0;" edge="1" parent="WIyWlLk6GJQsqaUBKTNV-1" source="ZehluOue_7DgOcoAd4q2-59" target="zkfFHV4jXpPFQw0GAbJ--17">
          <mxGeometry width="160" relative="1" as="geometry">
            <mxPoint x="779" y="110" as="sourcePoint" />
            <mxPoint x="670" y="40" as="targetPoint" />
            <Array as="points">
              <mxPoint x="710" y="50" />
            </Array>
          </mxGeometry>
        </mxCell>
        <mxCell id="1eRh6z_aY9kOuhoSlSKs-29" value="" style="endArrow=block;endSize=10;endFill=0;shadow=0;strokeWidth=1;rounded=0;curved=0;edgeStyle=elbowEdgeStyle;elbow=vertical;exitX=0.5;exitY=0;exitDx=0;exitDy=0;" edge="1" parent="WIyWlLk6GJQsqaUBKTNV-1" source="ZehluOue_7DgOcoAd4q2-70">
          <mxGeometry width="160" relative="1" as="geometry">
            <mxPoint x="771" y="120" as="sourcePoint" />
            <mxPoint x="660" as="targetPoint" />
            <Array as="points">
              <mxPoint x="710" />
            </Array>
          </mxGeometry>
        </mxCell>
        <mxCell id="1eRh6z_aY9kOuhoSlSKs-30" value="" style="endArrow=none;shadow=0;strokeWidth=1;rounded=0;curved=0;endFill=1;edgeStyle=elbowEdgeStyle;elbow=vertical;entryX=0;entryY=0.25;entryDx=0;entryDy=0;exitX=0.5;exitY=0;exitDx=0;exitDy=0;startFill=0;" edge="1" parent="WIyWlLk6GJQsqaUBKTNV-1" source="1eRh6z_aY9kOuhoSlSKs-19" target="ZehluOue_7DgOcoAd4q2-78">
          <mxGeometry x="0.5" y="41" relative="1" as="geometry">
            <mxPoint x="120" y="370.21034482758637" as="sourcePoint" />
            <mxPoint x="260" y="370.21034482758637" as="targetPoint" />
            <mxPoint x="-40" y="32" as="offset" />
            <Array as="points">
              <mxPoint x="280" y="65" />
            </Array>
          </mxGeometry>
        </mxCell>
        <mxCell id="1eRh6z_aY9kOuhoSlSKs-31" value="0..1" style="resizable=0;align=left;verticalAlign=bottom;labelBackgroundColor=none;fontSize=12;" connectable="0" vertex="1" parent="1eRh6z_aY9kOuhoSlSKs-30">
          <mxGeometry x="-1" relative="1" as="geometry">
            <mxPoint x="1" y="1" as="offset" />
          </mxGeometry>
        </mxCell>
        <mxCell id="1eRh6z_aY9kOuhoSlSKs-32" value="1" style="resizable=0;align=right;verticalAlign=bottom;labelBackgroundColor=none;fontSize=12;" connectable="0" vertex="1" parent="1eRh6z_aY9kOuhoSlSKs-30">
          <mxGeometry x="1" relative="1" as="geometry">
            <mxPoint x="-7" y="1" as="offset" />
          </mxGeometry>
        </mxCell>
        <mxCell id="1eRh6z_aY9kOuhoSlSKs-33" value="sugeneruoja" style="text;html=1;resizable=0;points=[];;align=center;verticalAlign=middle;labelBackgroundColor=none;rounded=0;shadow=0;strokeWidth=1;fontSize=12;" vertex="1" connectable="0" parent="1eRh6z_aY9kOuhoSlSKs-30">
          <mxGeometry x="0.5" y="49" relative="1" as="geometry">
            <mxPoint x="-88" y="74" as="offset" />
          </mxGeometry>
        </mxCell>
        <mxCell id="1eRh6z_aY9kOuhoSlSKs-34" value="" style="endArrow=none;shadow=0;strokeWidth=1;rounded=0;curved=0;endFill=1;edgeStyle=elbowEdgeStyle;elbow=vertical;exitX=0.5;exitY=0;exitDx=0;exitDy=0;startFill=0;entryX=0.504;entryY=0.989;entryDx=0;entryDy=0;entryPerimeter=0;" edge="1" parent="WIyWlLk6GJQsqaUBKTNV-1" source="1eRh6z_aY9kOuhoSlSKs-8" target="ZehluOue_7DgOcoAd4q2-81">
          <mxGeometry x="0.5" y="41" relative="1" as="geometry">
            <mxPoint x="240" y="150" as="sourcePoint" />
            <mxPoint x="390" y="120" as="targetPoint" />
            <mxPoint x="-40" y="32" as="offset" />
            <Array as="points">
              <mxPoint x="410" y="210" />
            </Array>
          </mxGeometry>
        </mxCell>
        <mxCell id="1eRh6z_aY9kOuhoSlSKs-35" value="1..*" style="resizable=0;align=left;verticalAlign=bottom;labelBackgroundColor=none;fontSize=12;" connectable="0" vertex="1" parent="1eRh6z_aY9kOuhoSlSKs-34">
          <mxGeometry x="-1" relative="1" as="geometry">
            <mxPoint x="1" as="offset" />
          </mxGeometry>
        </mxCell>
        <mxCell id="1eRh6z_aY9kOuhoSlSKs-36" value="1" style="resizable=0;align=right;verticalAlign=bottom;labelBackgroundColor=none;fontSize=12;" connectable="0" vertex="1" parent="1eRh6z_aY9kOuhoSlSKs-34">
          <mxGeometry x="1" relative="1" as="geometry">
            <mxPoint x="11" y="19" as="offset" />
          </mxGeometry>
        </mxCell>
        <mxCell id="1eRh6z_aY9kOuhoSlSKs-37" value="priklauso" style="text;html=1;resizable=0;points=[];;align=center;verticalAlign=middle;labelBackgroundColor=none;rounded=0;shadow=0;strokeWidth=1;fontSize=12;" vertex="1" connectable="0" parent="1eRh6z_aY9kOuhoSlSKs-34">
          <mxGeometry x="0.5" y="49" relative="1" as="geometry">
            <mxPoint x="19" y="29" as="offset" />
          </mxGeometry>
        </mxCell>
        <mxCell id="1eRh6z_aY9kOuhoSlSKs-38" value="" style="endArrow=none;shadow=0;strokeWidth=1;rounded=0;curved=0;endFill=1;edgeStyle=elbowEdgeStyle;elbow=vertical;exitX=1;exitY=0.5;exitDx=0;exitDy=0;startFill=0;entryX=0;entryY=0.5;entryDx=0;entryDy=0;" edge="1" parent="WIyWlLk6GJQsqaUBKTNV-1" source="1eRh6z_aY9kOuhoSlSKs-13" target="1eRh6z_aY9kOuhoSlSKs-18">
          <mxGeometry x="0.5" y="41" relative="1" as="geometry">
            <mxPoint x="390" y="270" as="sourcePoint" />
            <mxPoint x="390" y="122" as="targetPoint" />
            <mxPoint x="-40" y="32" as="offset" />
            <Array as="points">
              <mxPoint x="570" y="353" />
            </Array>
          </mxGeometry>
        </mxCell>
        <mxCell id="1eRh6z_aY9kOuhoSlSKs-39" value="1" style="resizable=0;align=left;verticalAlign=bottom;labelBackgroundColor=none;fontSize=12;" connectable="0" vertex="1" parent="1eRh6z_aY9kOuhoSlSKs-38">
          <mxGeometry x="-1" relative="1" as="geometry">
            <mxPoint x="1" y="19" as="offset" />
          </mxGeometry>
        </mxCell>
        <mxCell id="1eRh6z_aY9kOuhoSlSKs-40" value="0..*" style="resizable=0;align=right;verticalAlign=bottom;labelBackgroundColor=none;fontSize=12;" connectable="0" vertex="1" parent="1eRh6z_aY9kOuhoSlSKs-38">
          <mxGeometry x="1" relative="1" as="geometry">
            <mxPoint x="-6" y="15" as="offset" />
          </mxGeometry>
        </mxCell>
        <mxCell id="1eRh6z_aY9kOuhoSlSKs-41" value="yra pridėti" style="text;html=1;resizable=0;points=[];;align=center;verticalAlign=middle;labelBackgroundColor=none;rounded=0;shadow=0;strokeWidth=1;fontSize=12;" vertex="1" connectable="0" parent="1eRh6z_aY9kOuhoSlSKs-38">
          <mxGeometry x="0.5" y="49" relative="1" as="geometry">
            <mxPoint x="-69" y="37" as="offset" />
          </mxGeometry>
        </mxCell>
        <mxCell id="1eRh6z_aY9kOuhoSlSKs-42" value="" style="endArrow=none;shadow=0;strokeWidth=1;rounded=0;curved=0;endFill=1;edgeStyle=elbowEdgeStyle;elbow=vertical;exitX=0.5;exitY=0;exitDx=0;exitDy=0;startFill=0;entryX=0;entryY=0.5;entryDx=0;entryDy=0;" edge="1" parent="WIyWlLk6GJQsqaUBKTNV-1" target="1eRh6z_aY9kOuhoSlSKs-17">
          <mxGeometry x="0.5" y="41" relative="1" as="geometry">
            <mxPoint x="420" y="260" as="sourcePoint" />
            <mxPoint x="420" y="112" as="targetPoint" />
            <mxPoint x="-40" y="32" as="offset" />
            <Array as="points">
              <mxPoint x="450" y="210" />
            </Array>
          </mxGeometry>
        </mxCell>
        <mxCell id="1eRh6z_aY9kOuhoSlSKs-43" value="1" style="resizable=0;align=left;verticalAlign=bottom;labelBackgroundColor=none;fontSize=12;" connectable="0" vertex="1" parent="1eRh6z_aY9kOuhoSlSKs-42">
          <mxGeometry x="-1" relative="1" as="geometry">
            <mxPoint x="1" as="offset" />
          </mxGeometry>
        </mxCell>
        <mxCell id="1eRh6z_aY9kOuhoSlSKs-44" value="0..*" style="resizable=0;align=right;verticalAlign=bottom;labelBackgroundColor=none;fontSize=12;" connectable="0" vertex="1" parent="1eRh6z_aY9kOuhoSlSKs-42">
          <mxGeometry x="1" relative="1" as="geometry">
            <mxPoint x="-5" y="21" as="offset" />
          </mxGeometry>
        </mxCell>
        <mxCell id="1eRh6z_aY9kOuhoSlSKs-45" value="yra priskirti" style="text;html=1;resizable=0;points=[];;align=center;verticalAlign=middle;labelBackgroundColor=none;rounded=0;shadow=0;strokeWidth=1;fontSize=12;" vertex="1" connectable="0" parent="1eRh6z_aY9kOuhoSlSKs-42">
          <mxGeometry x="0.5" y="49" relative="1" as="geometry">
            <mxPoint x="-35" y="39" as="offset" />
          </mxGeometry>
        </mxCell>
        <mxCell id="1eRh6z_aY9kOuhoSlSKs-46" value="" style="endArrow=none;shadow=0;strokeWidth=1;rounded=0;curved=0;endFill=1;edgeStyle=elbowEdgeStyle;elbow=vertical;exitX=0.75;exitY=0;exitDx=0;exitDy=0;startFill=0;entryX=0;entryY=0.25;entryDx=0;entryDy=0;" edge="1" parent="WIyWlLk6GJQsqaUBKTNV-1" source="ZehluOue_7DgOcoAd4q2-83" target="ZehluOue_7DgOcoAd4q2-59">
          <mxGeometry x="0.5" y="41" relative="1" as="geometry">
            <mxPoint x="430" y="270" as="sourcePoint" />
            <mxPoint x="530" y="217" as="targetPoint" />
            <mxPoint x="-40" y="32" as="offset" />
            <Array as="points">
              <mxPoint x="680" y="160" />
            </Array>
          </mxGeometry>
        </mxCell>
        <mxCell id="1eRh6z_aY9kOuhoSlSKs-47" value="0..*" style="resizable=0;align=left;verticalAlign=bottom;labelBackgroundColor=none;fontSize=12;" connectable="0" vertex="1" parent="1eRh6z_aY9kOuhoSlSKs-46">
          <mxGeometry x="-1" relative="1" as="geometry">
            <mxPoint x="2" y="-1" as="offset" />
          </mxGeometry>
        </mxCell>
        <mxCell id="1eRh6z_aY9kOuhoSlSKs-48" value="1" style="resizable=0;align=right;verticalAlign=bottom;labelBackgroundColor=none;fontSize=12;" connectable="0" vertex="1" parent="1eRh6z_aY9kOuhoSlSKs-46">
          <mxGeometry x="1" relative="1" as="geometry">
            <mxPoint x="-5" y="17" as="offset" />
          </mxGeometry>
        </mxCell>
        <mxCell id="1eRh6z_aY9kOuhoSlSKs-49" value="sukuria" style="text;html=1;resizable=0;points=[];;align=center;verticalAlign=middle;labelBackgroundColor=none;rounded=0;shadow=0;strokeWidth=1;fontSize=12;" vertex="1" connectable="0" parent="1eRh6z_aY9kOuhoSlSKs-46">
          <mxGeometry x="0.5" y="49" relative="1" as="geometry">
            <mxPoint x="-27" y="39" as="offset" />
          </mxGeometry>
        </mxCell>
        <mxCell id="1eRh6z_aY9kOuhoSlSKs-50" value="" style="endArrow=none;shadow=0;strokeWidth=1;rounded=0;curved=0;endFill=1;edgeStyle=elbowEdgeStyle;elbow=vertical;exitX=0.5;exitY=0;exitDx=0;exitDy=0;startFill=0;entryX=0.5;entryY=1;entryDx=0;entryDy=0;" edge="1" parent="WIyWlLk6GJQsqaUBKTNV-1" source="1eRh6z_aY9kOuhoSlSKs-0" target="ZehluOue_7DgOcoAd4q2-59">
          <mxGeometry x="0.5" y="41" relative="1" as="geometry">
            <mxPoint x="635" y="190" as="sourcePoint" />
            <mxPoint x="750" y="173" as="targetPoint" />
            <mxPoint x="-40" y="32" as="offset" />
            <Array as="points">
              <mxPoint x="780" y="280" />
            </Array>
          </mxGeometry>
        </mxCell>
        <mxCell id="1eRh6z_aY9kOuhoSlSKs-51" value="0..*" style="resizable=0;align=left;verticalAlign=bottom;labelBackgroundColor=none;fontSize=12;" connectable="0" vertex="1" parent="1eRh6z_aY9kOuhoSlSKs-50">
          <mxGeometry x="-1" relative="1" as="geometry">
            <mxPoint x="2" y="-1" as="offset" />
          </mxGeometry>
        </mxCell>
        <mxCell id="1eRh6z_aY9kOuhoSlSKs-52" value="1" style="resizable=0;align=right;verticalAlign=bottom;labelBackgroundColor=none;fontSize=12;" connectable="0" vertex="1" parent="1eRh6z_aY9kOuhoSlSKs-50">
          <mxGeometry x="1" relative="1" as="geometry">
            <mxPoint x="12" y="17" as="offset" />
          </mxGeometry>
        </mxCell>
        <mxCell id="1eRh6z_aY9kOuhoSlSKs-53" value="sukuria" style="text;html=1;resizable=0;points=[];;align=center;verticalAlign=middle;labelBackgroundColor=none;rounded=0;shadow=0;strokeWidth=1;fontSize=12;" vertex="1" connectable="0" parent="1eRh6z_aY9kOuhoSlSKs-50">
          <mxGeometry x="0.5" y="49" relative="1" as="geometry">
            <mxPoint x="25" y="20" as="offset" />
          </mxGeometry>
        </mxCell>
        <mxCell id="1eRh6z_aY9kOuhoSlSKs-54" value="" style="endArrow=none;shadow=0;strokeWidth=1;rounded=0;curved=0;endFill=1;edgeStyle=elbowEdgeStyle;elbow=vertical;exitX=0.997;exitY=0.089;exitDx=0;exitDy=0;startFill=0;entryX=0;entryY=0.25;entryDx=0;entryDy=0;exitPerimeter=0;" edge="1" parent="WIyWlLk6GJQsqaUBKTNV-1" source="1eRh6z_aY9kOuhoSlSKs-0" target="ZehluOue_7DgOcoAd4q2-70">
          <mxGeometry x="0.5" y="41" relative="1" as="geometry">
            <mxPoint x="810" y="340" as="sourcePoint" />
            <mxPoint x="810" y="233" as="targetPoint" />
            <mxPoint x="-40" y="32" as="offset" />
            <Array as="points">
              <mxPoint x="890" y="340" />
            </Array>
          </mxGeometry>
        </mxCell>
        <mxCell id="1eRh6z_aY9kOuhoSlSKs-55" value="0..*" style="resizable=0;align=left;verticalAlign=bottom;labelBackgroundColor=none;fontSize=12;" connectable="0" vertex="1" parent="1eRh6z_aY9kOuhoSlSKs-54">
          <mxGeometry x="-1" relative="1" as="geometry">
            <mxPoint x="4" y="-1" as="offset" />
          </mxGeometry>
        </mxCell>
        <mxCell id="1eRh6z_aY9kOuhoSlSKs-56" value="1" style="resizable=0;align=right;verticalAlign=bottom;labelBackgroundColor=none;fontSize=12;" connectable="0" vertex="1" parent="1eRh6z_aY9kOuhoSlSKs-54">
          <mxGeometry x="1" relative="1" as="geometry">
            <mxPoint x="-4" y="-3" as="offset" />
          </mxGeometry>
        </mxCell>
        <mxCell id="1eRh6z_aY9kOuhoSlSKs-57" value="gauna" style="text;html=1;resizable=0;points=[];;align=center;verticalAlign=middle;labelBackgroundColor=none;rounded=0;shadow=0;strokeWidth=1;fontSize=12;" vertex="1" connectable="0" parent="1eRh6z_aY9kOuhoSlSKs-54">
          <mxGeometry x="0.5" y="49" relative="1" as="geometry">
            <mxPoint x="-23" y="58" as="offset" />
          </mxGeometry>
        </mxCell>
        <mxCell id="1eRh6z_aY9kOuhoSlSKs-58" value="" style="triangle;whiteSpace=wrap;html=1;fillColor=#FF0000;rotation=90;" vertex="1" parent="WIyWlLk6GJQsqaUBKTNV-1">
          <mxGeometry x="805" y="266" width="10" height="10" as="geometry" />
        </mxCell>
        <mxCell id="1eRh6z_aY9kOuhoSlSKs-59" value="" style="triangle;whiteSpace=wrap;html=1;fillColor=#FF0000;rotation=-180;" vertex="1" parent="WIyWlLk6GJQsqaUBKTNV-1">
          <mxGeometry x="900" y="360" width="10" height="10" as="geometry" />
        </mxCell>
        <mxCell id="1eRh6z_aY9kOuhoSlSKs-60" value="" style="triangle;whiteSpace=wrap;html=1;fillColor=#FF0000;rotation=-180;" vertex="1" parent="WIyWlLk6GJQsqaUBKTNV-1">
          <mxGeometry x="676" y="163" width="10" height="10" as="geometry" />
        </mxCell>
        <mxCell id="1eRh6z_aY9kOuhoSlSKs-61" value="" style="triangle;whiteSpace=wrap;html=1;fillColor=#FF0000;rotation=0;" vertex="1" parent="WIyWlLk6GJQsqaUBKTNV-1">
          <mxGeometry x="599" y="360" width="10" height="10" as="geometry" />
        </mxCell>
        <mxCell id="1eRh6z_aY9kOuhoSlSKs-62" value="" style="triangle;whiteSpace=wrap;html=1;fillColor=#FF0000;rotation=0;" vertex="1" parent="WIyWlLk6GJQsqaUBKTNV-1">
          <mxGeometry x="445" y="213" width="10" height="10" as="geometry" />
        </mxCell>
        <mxCell id="1eRh6z_aY9kOuhoSlSKs-63" value="" style="triangle;whiteSpace=wrap;html=1;fillColor=#FF0000;rotation=90;" vertex="1" parent="WIyWlLk6GJQsqaUBKTNV-1">
          <mxGeometry x="384" y="174" width="10" height="10" as="geometry" />
        </mxCell>
        <mxCell id="1eRh6z_aY9kOuhoSlSKs-64" value="" style="triangle;whiteSpace=wrap;html=1;fillColor=#FF0000;rotation=90;" vertex="1" parent="WIyWlLk6GJQsqaUBKTNV-1">
          <mxGeometry x="235" y="86" width="10" height="10" as="geometry" />
        </mxCell>
      </root>
    </mxGraphModel>
  </diagram>
</mxfile>
